# File exported by Houdini 18.0.348 (www.sidefx.com)
# 8 points
# 24 vertices
# 6 primitives
# Bounds: [-0.300000012, -0.0500000007, -0.5] to [0.300000012, 0.0500000007, 0.5]
g 
v 0.300000012 -0.0500000007 0.5
v -0.300000012 -0.0500000007 0.5
v 0.300000012 0.0500000007 0.5
v -0.300000012 0.0500000007 0.5
v -0.300000012 -0.0500000007 -0.5
v 0.300000012 -0.0500000007 -0.5
v -0.300000012 0.0500000007 -0.5
v 0.300000012 0.0500000007 -0.5
vn 0 0 1
vn -0 -0 1
vn -0 -0 1
vn -0 -0 1
vn 0 -0 -1
vn -0 -0 -1
vn -0 0 -1
vn -0 -0 -1
vn -0 1 -0
vn 0 1 0
vn -0 1 -0
vn -0 1 -0
vn -0 -1 -0
vn 0 -1 -0
vn -0 -1 -0
vn -0 -1 0
vn 1 -0 -0
vn 1 0 0
vn 1 -0 -0
vn 1 -0 -0
vn -1 -0 -0
vn -1 -0 0
vn -1 -0 -0
vn -1 0 -0
g I
f 1//1 3//2 4//3 2//4
f 5//5 7//6 8//7 6//8
f 7//9 4//10 3//11 8//12
f 6//13 1//14 2//15 5//16
f 6//17 8//18 3//19 1//20
f 2//21 4//22 7//23 5//24
