# File exported by Houdini 18.0.348 (www.sidefx.com)
# 36 points
# 160 vertices
# 36 primitives
# Bounds: [-0.5, -0.300000012, -0.5] to [0.299999982, 0.300000012, 0.299999982]
g 
v -0.100000024 -0.100000001 -0.5
v 0.100000024 -0.100000001 -0.5
v 0.100000024 0.100000001 -0.5
v -0.100000024 0.100000001 -0.5
v 0.100000024 0.300000012 -0.5
v -0.100000024 0.300000012 -0.5
v -0.100000024 -0.300000012 -0.5
v 0.100000024 -0.300000012 -0.5
v 0.299999982 -0.100000001 -0.49999997
v 0.299999982 0.100000001 -0.49999997
v -0.299999982 0.100000001 -0.49999997
v -0.299999982 -0.100000001 -0.49999997
v 0.100000016 0.300000012 0.100000016
v -0.100000016 0.300000012 -0.100000016
v -0.100000016 -0.300000012 -0.100000016
v 0.100000016 -0.300000012 0.100000016
v 0.299999982 -0.100000001 0.299999982
v 0.299999982 0.100000001 0.299999982
v -0.299999982 0.100000001 -0.299999982
v -0.299999982 -0.100000001 -0.299999982
v 0.100000016 0.100000001 0.100000016
v -0.100000016 0.100000001 -0.100000016
v -0.100000016 -0.100000001 -0.100000016
v 0.100000016 -0.100000001 0.100000016
v -0.5 -0.100000001 -0.100000024
v -0.5 -0.100000001 0.100000024
v -0.5 0.100000001 0.100000024
v -0.5 0.100000001 -0.100000024
v -0.5 0.300000012 0.100000024
v -0.5 0.300000012 -0.100000024
v -0.5 -0.300000012 -0.100000024
v -0.5 -0.300000012 0.100000024
v -0.49999997 -0.100000001 0.299999982
v -0.49999997 0.100000001 0.299999982
v -0.49999997 0.100000001 -0.299999982
v -0.49999997 -0.100000001 -0.299999982
vn -4.96705468e-08 0 -1
vn -4.96705468e-08 0 -1
vn 4.96705468e-08 0 -1
vn 4.96705468e-08 0 -1
vn -4.96705468e-08 0 -1
vn -0 -0 -1
vn -0 0 -1
vn 4.96705468e-08 0 -1
vn 4.96705468e-08 0 -1
vn -0 -0 -1
vn 0 -0 -1
vn -4.96705468e-08 0 -1
vn 4.96705468e-08 0 -1
vn 1.49011655e-07 -0 -1
vn 1.49011655e-07 -0 -1
vn 4.96705468e-08 0 -1
vn -4.96705468e-08 0 -1
vn -1.49011655e-07 -0 -1
vn -1.49011655e-07 -0 -1
vn -4.96705468e-08 0 -1
vn 0 1 -0
vn -0 1 -0
vn -0 1 0
vn -0 1 -0
vn -0 -1 -0
vn -0 -1 0
vn -0 -1 -0
vn 0 -1 -0
vn 1 -0 -0
vn 1 0 0
vn 0.923879504 -0 -0.382683426
vn 0.923879504 -0 -0.382683426
vn -1 -0 -0
vn -1 0 -0
vn -0.923879504 -0 0.382683426
vn -0.923879504 -0 0.382683426
vn 1 0 1.24176349e-08
vn 1 0 1.24176349e-08
vn 0.923879504 -0 -0.382683456
vn 0.923879445 0 -0.382683426
vn -1 -0 1.86264515e-08
vn -1 -0 1.86264515e-08
vn -0.923879504 0 0.382683426
vn -0.923879504 -0 0.382683426
vn -1 -0 1.86264515e-08
vn -1 -0 1.86264515e-08
vn -0.923879504 -0 0.382683426
vn -0.923879504 0 0.382683426
vn 0.923879445 0 -0.382683426
vn 0.923879504 -0 -0.382683456
vn 1 0 1.24176349e-08
vn 1 0 1.24176349e-08
vn -0 -1 -0
vn -0 -0.99999994 -0
vn 0 -1 -0
vn -0 -1 0
vn -0 0.99999994 -0
vn -0 1 -0
vn -0 1 0
vn 0 1 -0
vn 0 -1 -0
vn -0 -1 -0
vn -0 -0.99999994 0
vn -0 -1 -0
vn -0 1 0
vn 0 1 -0
vn -0 1 -0
vn -0 0.99999994 -0
vn -0.923879504 0 0.382683426
vn -0.923879504 -0 0.382683426
vn -0.923879504 -0 0.382683426
vn -0.923879504 0 0.382683426
vn -0.923879504 -0 0.382683426
vn -0.382683456 0 0.923879504
vn -0.382683426 0 0.923879445
vn -0.382683426 0 0.923879504
vn -0.382683426 -0 0.923879504
vn -0.382683426 0 0.923879445
vn -0.382683456 0 0.923879504
vn -0.923879504 -0 0.382683426
vn -1 0 -4.96705468e-08
vn -1 -0 4.96705468e-08
vn -1 -0 4.96705468e-08
vn -1 0 -4.96705468e-08
vn -1 0 -4.96705468e-08
vn -1 -0 4.96705468e-08
vn -1 -0 0
vn -1 -0 -0
vn -1 -0 4.96705468e-08
vn -1 0 -4.96705468e-08
vn -1 0 -0
vn -1 -0 -0
vn -1 -0 4.96705468e-08
vn -1 -0 4.96705468e-08
vn -1 -0 1.49011655e-07
vn -1 -0 1.49011655e-07
vn -1 0 -4.96705468e-08
vn -1 0 -4.96705468e-08
vn -1 0 -1.49011655e-07
vn -1 0 -1.49011655e-07
vn 0 1 -0
vn -0 1 -0
vn -0 1 -0
vn 0 1 0
vn -0 -1 -0
vn 0 -1 -0
vn 0 -1 -0
vn -0 -1 0
vn -0 -0 1
vn -0.382683426 0 0.923879504
vn -0.382683426 -0 0.923879504
vn -0 -0 1
vn -0 -0 -1
vn 0.382683426 0 -0.923879504
vn 0.382683426 -0 -0.923879504
vn 0 -0 -1
vn 1.24176349e-08 -0 1
vn -0.382683426 0 0.923879445
vn -0.382683456 0 0.923879504
vn 1.24176349e-08 -0 1
vn 1.86264515e-08 -0 -1
vn 0.382683426 -0 -0.923879504
vn 0.382683426 0 -0.923879504
vn 1.86264515e-08 -0 -1
vn 1.86264515e-08 -0 -1
vn 0.382683426 0 -0.923879504
vn 0.382683426 -0 -0.923879504
vn 1.86264515e-08 -0 -1
vn -0.382683426 0 0.923879445
vn 1.24176349e-08 -0 1
vn 1.24176349e-08 -0 1
vn -0.382683456 0 0.923879504
vn -0 -1 0
vn -0 -1 0
vn 0 -1 -0
vn -0 -0.99999994 -0
vn 0 0.99999994 -0
vn 0 1 -0
vn -0 1 0
vn -0 1 0
vn 0 -1 -0
vn -0 -1 0
vn -0 -0.99999994 -0
vn -0 -1 -0
vn -0 1 0
vn -0 0.99999994 -0
vn -0 1 0
vn 0 1 -0
vn 0.382683426 0 -0.923879504
vn 0.382683426 -0 -0.923879504
vn 0.923879504 -0 -0.382683456
vn 0.923879445 0 -0.382683426
vn 0.923879504 -0 -0.382683426
vn 0.923879504 -0 -0.382683426
vn 0.923879445 0 -0.382683426
vn 0.923879504 -0 -0.382683456
vn 0.382683426 -0 -0.923879504
vn 0.382683426 0 -0.923879504
vn 0.382683426 -0 -0.923879504
vn 0.382683426 0 -0.923879504
g L
f 1//1 4//2 3//3 2//4
f 4//5 6//6 5//7 3//8
f 2//9 8//10 7//11 1//12
f 3//13 10//14 9//15 2//16
f 1//17 12//18 11//19 4//20
f 13//21 5//22 6//23 14//24
f 15//25 7//26 8//27 16//28
f 9//29 10//30 18//31 17//32
f 11//33 12//34 20//35 19//36
f 3//37 5//38 13//39 21//40
f 6//41 4//42 22//43 14//44
f 1//45 7//46 15//47 23//48
f 24//49 16//50 8//51 2//52
f 2//53 9//54 17//55 24//56
f 10//57 3//58 21//59 18//60
f 23//61 20//62 12//63 1//64
f 19//65 22//66 4//67 11//68
f 22//69 19//70 20//71 23//72 15//73 16//74 24//75 17//76 18//77 21//78 13//79 14//80
f 25//81 26//82 27//83 28//84
f 28//85 27//86 29//87 30//88
f 26//89 25//90 31//91 32//92
f 27//93 26//94 33//95 34//96
f 25//97 28//98 35//99 36//100
f 13//101 14//102 30//103 29//104
f 15//105 16//106 32//107 31//108
f 33//109 17//110 18//111 34//112
f 35//113 19//114 20//115 36//116
f 27//117 21//118 13//119 29//120
f 30//121 14//122 22//123 28//124
f 25//125 23//126 15//127 31//128
f 24//129 26//130 32//131 16//132
f 26//133 24//134 17//135 33//136
f 34//137 18//138 21//139 27//140
f 23//141 25//142 36//143 20//144
f 19//145 35//146 28//147 22//148
f 22//149 14//150 13//151 21//152 18//153 17//154 24//155 16//156 15//157 23//158 20//159 19//160
