# File exported by Houdini 18.0.348 (www.sidefx.com)
# 88 points
# 264 vertices
# 66 primitives
# Bounds: [-0.5, -0.0500000007, -0.5] to [0.300000012, 0.300000012, 0.300000012]
g 
v 0.300000012 -0.0500000007 0.300000012
v -0.300000012 -0.0500000007 0.300000012
v 0.300000012 0.0500000007 0.300000012
v -0.300000012 0.0500000007 0.300000012
v -0.300000012 -0.0500000007 -0.5
v 0.300000012 -0.0500000007 -0.5
v -0.300000012 0.0500000007 -0.5
v 0.300000012 0.0500000007 -0.5
v -0.300000012 -0.0500000007 0.300000012
v -0.5 -0.0500000007 0.300000012
v -0.300000012 0.0500000007 0.300000012
v -0.5 0.0500000007 0.300000012
v -0.5 -0.0500000007 -0.300000012
v -0.300000012 -0.0500000007 -0.300000012
v -0.5 0.0500000007 -0.300000012
v -0.300000012 0.0500000007 -0.300000012
v 0.224999994 0.0500000007 0.225000024
v 0.275000006 0.0500000007 0.225000024
v 0.275000006 0.0500000007 0.275000006
v 0.224999994 0.0500000007 0.275000006
v 0.224999994 0.300000012 0.225000024
v 0.275000006 0.300000012 0.225000024
v 0.275000006 0.300000012 0.275000006
v 0.224999994 0.300000012 0.275000006
v 0.224999994 0.0500000007 -0.375
v 0.275000006 0.0500000007 -0.375
v 0.275000006 0.0500000007 -0.325000018
v 0.224999994 0.0500000007 -0.325000018
v 0.224999994 0.300000012 -0.375
v 0.275000006 0.300000012 -0.375
v 0.275000006 0.300000012 -0.325000018
v 0.224999994 0.300000012 -0.325000018
v 0.224999994 0.0500000007 -0.174999982
v 0.275000006 0.0500000007 -0.174999982
v 0.275000006 0.0500000007 -0.125
v 0.224999994 0.0500000007 -0.125
v 0.224999994 0.300000012 -0.174999982
v 0.275000006 0.300000012 -0.174999982
v 0.275000006 0.300000012 -0.125
v 0.224999994 0.300000012 -0.125
v 0.224999994 0.0500000007 0.0250000171
v 0.275000006 0.0500000007 0.0250000171
v 0.275000006 0.0500000007 0.075000003
v 0.224999994 0.0500000007 0.075000003
v 0.224999994 0.300000012 0.0250000171
v 0.275000006 0.300000012 0.0250000171
v 0.275000006 0.300000012 0.075000003
v 0.224999994 0.300000012 0.075000003
v 0.245000005 0.245000005 -0.350000024
v 0.254999995 0.245000005 -0.350000024
v 0.254999995 0.245000005 0.25
v 0.245000005 0.245000005 0.25
v 0.245000005 0.254999995 -0.350000024
v 0.254999995 0.254999995 -0.350000024
v 0.254999995 0.254999995 0.25
v 0.245000005 0.254999995 0.25
v -0.375 0.0500000007 0.275000006
v -0.375 0.0500000007 0.224999994
v -0.325000018 0.0500000007 0.224999994
v -0.325000018 0.0500000007 0.275000006
v -0.375 0.300000012 0.275000006
v -0.375 0.300000012 0.224999994
v -0.325000018 0.300000012 0.224999994
v -0.325000018 0.300000012 0.275000006
v -0.174999982 0.0500000007 0.275000006
v -0.174999982 0.0500000007 0.224999994
v -0.125 0.0500000007 0.224999994
v -0.125 0.0500000007 0.275000006
v -0.174999982 0.300000012 0.275000006
v -0.174999982 0.300000012 0.224999994
v -0.125 0.300000012 0.224999994
v -0.125 0.300000012 0.275000006
v 0.0250000171 0.0500000007 0.275000006
v 0.0250000171 0.0500000007 0.224999994
v 0.075000003 0.0500000007 0.224999994
v 0.075000003 0.0500000007 0.275000006
v 0.0250000171 0.300000012 0.275000006
v 0.0250000171 0.300000012 0.224999994
v 0.075000003 0.300000012 0.224999994
v 0.075000003 0.300000012 0.275000006
v -0.350000024 0.245000005 0.254999995
v -0.350000024 0.245000005 0.245000005
v 0.25 0.245000005 0.245000005
v 0.25 0.245000005 0.254999995
v -0.350000024 0.254999995 0.254999995
v -0.350000024 0.254999995 0.245000005
v 0.25 0.254999995 0.245000005
v 0.25 0.254999995 0.254999995
vn 0 0 1
vn -0 -0 1
vn -0 -0 1
vn -0 -0 1
vn 0 -0 -1
vn -0 -0 -1
vn -0 0 -1
vn -0 -0 -1
vn -0 1 -0
vn 0 1 0
vn -0 1 -0
vn -0 1 -0
vn -0 -1 -0
vn 0 -1 -0
vn -0 -1 -0
vn -0 -1 0
vn 1 -0 -0
vn 1 0 0
vn 1 -0 -0
vn 1 -0 -0
vn -1 -0 -0
vn -1 -0 0
vn -1 -0 -0
vn -1 0 -0
vn 0 0 1
vn -0 -0 1
vn -0 -0 1
vn -0 -0 1
vn 0 -0 -1
vn -0 -0 -1
vn -0 0 -1
vn -0 -0 -1
vn -0 1 -0
vn 0 1 0
vn -0 1 -0
vn -0 1 -0
vn -0 -1 -0
vn 0 -1 -0
vn -0 -1 -0
vn -0 -1 0
vn 1 -0 -0
vn 1 0 0
vn 1 -0 -0
vn 1 -0 -0
vn -1 -0 -0
vn -1 -0 0
vn -1 -0 -0
vn -1 0 -0
vn -0 -0 -1
vn 0 -0 -1
vn -0 -0 -1
vn -0 0 -1
vn 1 -0 -0
vn 1 -0 -0
vn 1 0 0
vn 1 -0 -0
vn -0 -0 1
vn 0 0 1
vn -0 -0 1
vn -0 -0 1
vn -1 0 -0
vn -1 -0 -0
vn -1 -0 0
vn -1 -0 -0
vn 0 -1 -0
vn -0 -1 -0
vn -0 -1 0
vn -0 -1 -0
vn -0 1 -0
vn -0 1 -0
vn 0 1 0
vn -0 1 -0
vn -0 -0 -1
vn 0 -0 -1
vn -0 -0 -1
vn -0 0 -1
vn 1 -0 -0
vn 1 -0 -0
vn 1 0 0
vn 1 -0 -0
vn -0 -0 1
vn 0 0 1
vn -0 -0 1
vn -0 -0 1
vn -1 0 -0
vn -1 -0 -0
vn -1 -0 0
vn -1 -0 -0
vn 0 -1 -0
vn -0 -1 -0
vn -0 -1 0
vn -0 -1 -0
vn -0 1 -0
vn -0 1 -0
vn 0 1 0
vn -0 1 -0
vn -0 -0 -1
vn 0 -0 -1
vn -0 -0 -1
vn -0 0 -1
vn 1 -0 -0
vn 1 -0 -0
vn 1 0 0
vn 1 -0 -0
vn -0 -0 1
vn 0 0 1
vn -0 -0 1
vn -0 -0 1
vn -1 0 -0
vn -1 -0 -0
vn -1 -0 0
vn -1 -0 -0
vn 0 -1 -0
vn -0 -1 -0
vn -0 -1 0
vn -0 -1 -0
vn -0 1 -0
vn -0 1 -0
vn 0 1 0
vn -0 1 -0
vn -0 -0 -1
vn 0 -0 -1
vn -0 -0 -1
vn -0 0 -1
vn 1 -0 -0
vn 1 -0 -0
vn 1 0 0
vn 1 -0 -0
vn -0 -0 1
vn 0 0 1
vn -0 -0 1
vn -0 -0 1
vn -1 0 -0
vn -1 -0 -0
vn -1 -0 0
vn -1 -0 -0
vn 0 -1 -0
vn -0 -1 -0
vn -0 -1 0
vn -0 -1 -0
vn -0 1 -0
vn -0 1 -0
vn 0 1 0
vn -0 1 -0
vn -0 -0 -1
vn 0 -0 -1
vn -0 -0 -1
vn -0 0 -1
vn 1 -0 -0
vn 1 -0 -0
vn 1 0 0
vn 1 -0 -0
vn -0 -0 1
vn 0 0 1
vn -0 -0 1
vn -0 -0 1
vn -1 0 -0
vn -1 -0 -0
vn -1 -0 0
vn -1 -0 -0
vn 0 -1 -0
vn -0 -1 -0
vn -0 -1 0
vn -0 -1 -0
vn -0 1 -0
vn -0 1 -0
vn 0 1 0
vn -0 1 -0
vn -1 0 -0
vn -1 -0 -0
vn -1 -0 0
vn -1 -0 -0
vn -0 -0 -1
vn 0 -0 -1
vn -0 -0 -1
vn -0 0 -1
vn 1 -0 -0
vn 1 -0 -0
vn 1 0 0
vn 1 -0 -0
vn -0 -0 1
vn 0 0 1
vn -0 -0 1
vn -0 -0 1
vn -0 -1 -0
vn 0 -1 -0
vn -0 -1 -0
vn -0 -1 0
vn -0 1 -0
vn 0 1 0
vn -0 1 -0
vn -0 1 -0
vn -1 0 -0
vn -1 -0 -0
vn -1 -0 0
vn -1 -0 -0
vn -0 -0 -1
vn 0 -0 -1
vn -0 -0 -1
vn -0 0 -1
vn 1 -0 -0
vn 1 -0 -0
vn 1 0 0
vn 1 -0 -0
vn -0 -0 1
vn 0 0 1
vn -0 -0 1
vn -0 -0 1
vn -0 -1 -0
vn 0 -1 -0
vn -0 -1 -0
vn -0 -1 0
vn -0 1 -0
vn 0 1 0
vn -0 1 -0
vn -0 1 -0
vn -1 0 -0
vn -1 -0 -0
vn -1 -0 0
vn -1 -0 -0
vn -0 -0 -1
vn 0 -0 -1
vn -0 -0 -1
vn -0 0 -1
vn 1 -0 -0
vn 1 -0 -0
vn 1 0 0
vn 1 -0 -0
vn -0 -0 1
vn 0 0 1
vn -0 -0 1
vn -0 -0 1
vn -0 -1 -0
vn 0 -1 -0
vn -0 -1 -0
vn -0 -1 0
vn -0 1 -0
vn 0 1 0
vn -0 1 -0
vn -0 1 -0
vn -1 0 -0
vn -1 -0 -0
vn -1 -0 0
vn -1 -0 -0
vn -0 -0 -1
vn 0 -0 -1
vn -0 -0 -1
vn -0 0 -1
vn 1 -0 -0
vn 1 -0 -0
vn 1 0 0
vn 1 -0 -0
vn -0 -0 1
vn 0 0 1
vn -0 -0 1
vn -0 -0 1
vn -0 -1 -0
vn 0 -1 -0
vn -0 -1 -0
vn -0 -1 0
vn -0 1 -0
vn 0 1 0
vn -0 1 -0
vn -0 1 -0
g L
f 1//1 3//2 4//3 2//4
f 5//5 7//6 8//7 6//8
f 7//9 4//10 3//11 8//12
f 6//13 1//14 2//15 5//16
f 6//17 8//18 3//19 1//20
f 2//21 4//22 7//23 5//24
f 9//25 11//26 12//27 10//28
f 13//29 15//30 16//31 14//32
f 15//33 12//34 11//35 16//36
f 14//37 9//38 10//39 13//40
f 14//41 16//42 11//43 9//44
f 10//45 12//46 15//47 13//48
f 18//49 17//50 21//51 22//52
f 19//53 18//54 22//55 23//56
f 20//57 19//58 23//59 24//60
f 17//61 20//62 24//63 21//64
f 19//65 20//66 17//67 18//68
f 22//69 21//70 24//71 23//72
f 26//73 25//74 29//75 30//76
f 27//77 26//78 30//79 31//80
f 28//81 27//82 31//83 32//84
f 25//85 28//86 32//87 29//88
f 27//89 28//90 25//91 26//92
f 30//93 29//94 32//95 31//96
f 34//97 33//98 37//99 38//100
f 35//101 34//102 38//103 39//104
f 36//105 35//106 39//107 40//108
f 33//109 36//110 40//111 37//112
f 35//113 36//114 33//115 34//116
f 38//117 37//118 40//119 39//120
f 42//121 41//122 45//123 46//124
f 43//125 42//126 46//127 47//128
f 44//129 43//130 47//131 48//132
f 41//133 44//134 48//135 45//136
f 43//137 44//138 41//139 42//140
f 46//141 45//142 48//143 47//144
f 50//145 49//146 53//147 54//148
f 51//149 50//150 54//151 55//152
f 52//153 51//154 55//155 56//156
f 49//157 52//158 56//159 53//160
f 51//161 52//162 49//163 50//164
f 54//165 53//166 56//167 55//168
f 58//169 57//170 61//171 62//172
f 59//173 58//174 62//175 63//176
f 60//177 59//178 63//179 64//180
f 57//181 60//182 64//183 61//184
f 59//185 60//186 57//187 58//188
f 62//189 61//190 64//191 63//192
f 66//193 65//194 69//195 70//196
f 67//197 66//198 70//199 71//200
f 68//201 67//202 71//203 72//204
f 65//205 68//206 72//207 69//208
f 67//209 68//210 65//211 66//212
f 70//213 69//214 72//215 71//216
f 74//217 73//218 77//219 78//220
f 75//221 74//222 78//223 79//224
f 76//225 75//226 79//227 80//228
f 73//229 76//230 80//231 77//232
f 75//233 76//234 73//235 74//236
f 78//237 77//238 80//239 79//240
f 82//241 81//242 85//243 86//244
f 83//245 82//246 86//247 87//248
f 84//249 83//250 87//251 88//252
f 81//253 84//254 88//255 85//256
f 83//257 84//258 81//259 82//260
f 86//261 85//262 88//263 87//264
