# File exported by Houdini 18.0.348 (www.sidefx.com)
# 40 points
# 120 vertices
# 30 primitives
# Bounds: [-0.300000012, 0, -0.5] to [0.300000012, 0.5, 0]
g 
v 0.300000012 0 -0.400000006
v -0.300000012 0 -0.400000006
v 0.300000012 0.100000001 -0.400000006
v -0.300000012 0.100000001 -0.400000006
v -0.300000012 0 -0.5
v 0.300000012 0 -0.5
v -0.300000012 0.100000001 -0.5
v 0.300000012 0.100000001 -0.5
v 0.300000012 0.100000001 -0.300000012
v -0.300000012 0.100000001 -0.300000012
v 0.300000012 0.200000003 -0.300000012
v -0.300000012 0.200000003 -0.300000012
v -0.300000012 0.100000001 -0.400000006
v 0.300000012 0.100000001 -0.400000006
v -0.300000012 0.200000003 -0.400000006
v 0.300000012 0.200000003 -0.400000006
v 0.300000012 0.200000003 -0.200000003
v -0.300000012 0.200000003 -0.200000003
v 0.300000012 0.300000012 -0.200000003
v -0.300000012 0.300000012 -0.200000003
v -0.300000012 0.200000003 -0.300000012
v 0.300000012 0.200000003 -0.300000012
v -0.300000012 0.300000012 -0.300000012
v 0.300000012 0.300000012 -0.300000012
v 0.300000012 0.300000012 -0.099999994
v -0.300000012 0.300000012 -0.099999994
v 0.300000012 0.400000006 -0.099999994
v -0.300000012 0.400000006 -0.099999994
v -0.300000012 0.300000012 -0.199999988
v 0.300000012 0.300000012 -0.199999988
v -0.300000012 0.400000006 -0.199999988
v 0.300000012 0.400000006 -0.199999988
v 0.300000012 0.400000006 0
v -0.300000012 0.400000006 0
v 0.300000012 0.5 0
v -0.300000012 0.5 0
v -0.300000012 0.400000006 -0.099999994
v 0.300000012 0.400000006 -0.099999994
v -0.300000012 0.5 -0.099999994
v 0.300000012 0.5 -0.099999994
vn 0 0 1
vn -0 -0 1
vn -0 -0 1
vn -0 -0 1
vn 0 -0 -1
vn -0 -0 -1
vn -0 0 -1
vn -0 -0 -1
vn -0 1 -0
vn 0 1 0
vn -0 1 -0
vn -0 1 -0
vn -0 -1 -0
vn 0 -1 -0
vn -0 -1 -0
vn -0 -1 0
vn 1 -0 -0
vn 1 0 0
vn 1 -0 -0
vn 1 -0 -0
vn -1 -0 -0
vn -1 -0 0
vn -1 -0 -0
vn -1 0 -0
vn 0 0 1
vn -0 -0 1
vn -0 -0 1
vn -0 -0 1
vn 0 -0 -1
vn -0 -0 -1
vn -0 0 -1
vn -0 -0 -1
vn -0 1 -0
vn 0 1 0
vn -0 1 -0
vn -0 1 -0
vn -0 -1 -0
vn 0 -1 -0
vn -0 -1 -0
vn -0 -1 0
vn 1 -0 -0
vn 1 0 0
vn 1 -0 -0
vn 1 -0 -0
vn -1 -0 -0
vn -1 -0 0
vn -1 -0 -0
vn -1 0 -0
vn 0 0 1
vn -0 -0 1
vn -0 -0 1
vn -0 -0 1
vn 0 -0 -1
vn -0 -0 -1
vn -0 0 -1
vn -0 -0 -1
vn -0 1 -0
vn 0 1 0
vn -0 1 -0
vn -0 1 -0
vn -0 -1 -0
vn 0 -1 -0
vn -0 -1 -0
vn -0 -1 0
vn 1 -0 -0
vn 1 0 0
vn 1 -0 -0
vn 1 -0 -0
vn -1 -0 -0
vn -1 -0 0
vn -1 -0 -0
vn -1 0 -0
vn 0 0 1
vn -0 -0 1
vn -0 -0 1
vn -0 -0 1
vn 0 -0 -1
vn -0 -0 -1
vn -0 0 -1
vn -0 -0 -1
vn -0 1 -0
vn 0 1 0
vn -0 1 -0
vn -0 1 -0
vn -0 -1 -0
vn 0 -1 -0
vn -0 -1 -0
vn -0 -1 0
vn 1 -0 -0
vn 1 0 0
vn 1 -0 -0
vn 1 -0 -0
vn -1 -0 -0
vn -1 -0 0
vn -1 -0 -0
vn -1 0 -0
vn 0 0 1
vn -0 -0 1
vn -0 -0 1
vn -0 -0 1
vn 0 -0 -1
vn -0 -0 -1
vn -0 0 -1
vn -0 -0 -1
vn -0 1 -0
vn 0 1 0
vn -0 1 -0
vn -0 1 -0
vn -0 -1 -0
vn 0 -1 -0
vn -0 -1 -0
vn -0 -1 0
vn 1 -0 -0
vn 1 0 0
vn 1 -0 -0
vn 1 -0 -0
vn -1 -0 -0
vn -1 -0 0
vn -1 -0 -0
vn -1 0 -0
g Stairs
f 1//1 3//2 4//3 2//4
f 5//5 7//6 8//7 6//8
f 7//9 4//10 3//11 8//12
f 6//13 1//14 2//15 5//16
f 6//17 8//18 3//19 1//20
f 2//21 4//22 7//23 5//24
f 9//25 11//26 12//27 10//28
f 13//29 15//30 16//31 14//32
f 15//33 12//34 11//35 16//36
f 14//37 9//38 10//39 13//40
f 14//41 16//42 11//43 9//44
f 10//45 12//46 15//47 13//48
f 17//49 19//50 20//51 18//52
f 21//53 23//54 24//55 22//56
f 23//57 20//58 19//59 24//60
f 22//61 17//62 18//63 21//64
f 22//65 24//66 19//67 17//68
f 18//69 20//70 23//71 21//72
f 25//73 27//74 28//75 26//76
f 29//77 31//78 32//79 30//80
f 31//81 28//82 27//83 32//84
f 30//85 25//86 26//87 29//88
f 30//89 32//90 27//91 25//92
f 26//93 28//94 31//95 29//96
f 33//97 35//98 36//99 34//100
f 37//101 39//102 40//103 38//104
f 39//105 36//106 35//107 40//108
f 38//109 33//110 34//111 37//112
f 38//113 40//114 35//115 33//116
f 34//117 36//118 39//119 37//120
