# File exported by Houdini 18.0.348 (www.sidefx.com)
# 12 points
# 12 vertices
# 3 primitives
# Bounds: [-0.5, -0.5, -0.5] to [0.5, 0.5, 0.5]
g 
v -0.5 -0.5 -0.5
v 0.5 -0.5 -0.5
v -0.5 -0.5 0.5
v 0.5 -0.5 0.5
v 0.5 -0.5 -0.5
v 0.5 0.5 -0.5
v 0.5 -0.5 0.5
v 0.5 0.5 0.5
v -0.5 -0.5 0.5
v 0.5 -0.5 0.5
v -0.5 0.5 0.5
v 0.5 0.5 0.5
vn -0 1 -0
vn 0 1 0
vn -0 1 -0
vn -0 1 -0
vn -1 0 -0
vn -1 -0 -0
vn -1 -0 0
vn -1 -0 -0
vn 0 -0 -1
vn -0 -0 -1
vn -0 0 -1
vn -0 -0 -1
g 
f 1//1 3//2 4//3 2//4
f 5//5 7//6 8//7 6//8
f 9//9 11//10 12//11 10//12
