# File exported by Houdini 18.0.348 (www.sidefx.com)
# 14 points
# 26 vertices
# 7 primitives
# Bounds: [-0.5, -0.5, -0.5] to [0.5, 0.5, 0.5]
g 
v -0.5 -0.5 -0.5
v 0.5 -0.5 -0.5
v -0.5 -0.5 0.5
v 0.5 -0.5 0.5
v -0.5 -0.5 0.5
v 0.5 -0.5 0.5
v -0.5 0.5 0.5
v 0.5 0.5 0.5
v -0.5 -0.5 -0.5
v 0.5 -0.5 -0.5
v 0.5 -0.5 0.5
v -0.5 -0.5 0.5
v 0.5 0.5 -0.5
v 0.5 0.5 0.5
vn -0 1 -0
vn 0 1 0
vn -0 1 -0
vn -0 1 -0
vn 0 -0 -1
vn -0 -0 -1
vn -0 0 -1
vn -0 -0 -1
vn 0 0 -1
vn 0 0 -1
vn 0 0 -1
vn 1 -0 -0
vn 1 -0 -0
vn 1 0 0
vn 1 -0 -0
vn 0 0 1
vn 0 0 1
vn 0 0 1
vn -0.707106829 0.707106829 -0
vn -0.707106829 0.707106829 -0
vn -0.707106829 0.707106829 -0
vn -0.707106829 0.707106829 -0
vn 0 -1 -0
vn -0 -1 -0
vn -0 -1 0
vn -0 -1 -0
g 
f 1//1 3//2 4//3 2//4
f 5//5 7//6 8//7 6//8
f 10//9 9//10 13//11
f 11//12 10//13 13//14 14//15
f 12//16 11//17 14//18
f 9//19 12//20 14//21 13//22
f 11//23 12//24 9//25 10//26
